<svg width="438" height="386" viewBox="0 0 438 386" fill="none" xmlns="http://www.w3.org/2000/svg">
<path d="M0.500168 8C0.500168 12.4183 4.08189 16 8.50017 16C12.9184 16 16.5002 12.4183 16.5002 8C16.5002 3.58172 12.9184 0 8.50017 0C4.08189 0 0.500168 3.58172 0.500168 8ZM98.4998 226.5L98.3342 225.009L98.4998 226.5ZM333.5 135.5L333.951 134.069L333.862 134.041L333.77 134.025L333.5 135.5ZM425.439 385.561C426.025 386.146 426.975 386.146 427.561 385.561L437.107 376.015C437.692 375.429 437.692 374.479 437.107 373.893C436.521 373.308 435.571 373.308 434.985 373.893L426.5 382.379L418.015 373.893C417.429 373.308 416.479 373.308 415.893 373.893C415.308 374.479 415.308 375.429 415.893 376.015L425.439 385.561ZM5.69466 12.5295C5.50678 13.3363 6.00854 14.1427 6.81538 14.3306C7.62222 14.5184 8.42861 14.0167 8.61649 13.2098L5.69466 12.5295ZM6.8999 23.0206C7.00586 22.1989 6.42569 21.447 5.60407 21.341C4.78245 21.2351 4.03049 21.8152 3.92454 22.6369L6.8999 23.0206ZM2.94751 32.8085C2.89195 33.635 3.51696 34.3501 4.34353 34.4057C5.17009 34.4612 5.88519 33.8362 5.94075 33.0097L2.94751 32.8085ZM5.49941 43.08C5.51793 42.2517 4.86153 41.5653 4.03331 41.5468C3.20509 41.5283 2.51868 42.1847 2.50016 43.0129L5.49941 43.08ZM2.46342 53.2466C2.47515 54.0749 3.15617 54.7369 3.98451 54.7252C4.81286 54.7135 5.47485 54.0324 5.46312 53.2041L2.46342 53.2466ZM5.76893 63.2881C5.73092 62.4606 5.02924 61.8205 4.20169 61.8585C3.37413 61.8965 2.73408 62.5982 2.77209 63.4258L5.76893 63.2881ZM3.38862 73.5833C3.45072 74.4094 4.17075 75.0287 4.99685 74.9666C5.82294 74.9045 6.44228 74.1845 6.38018 73.3584L3.38862 73.5833ZM7.27807 83.4182C7.19301 82.5942 6.45603 81.9951 5.63198 82.0802C4.80793 82.1652 4.20887 82.9022 4.29393 83.7263L7.27807 83.4182ZM5.47866 93.8434C5.58627 94.6648 6.33938 95.2435 7.16079 95.1359C7.9822 95.0283 8.56085 94.2752 8.45324 93.4538L5.47866 93.8434ZM9.90383 103.454C9.77354 102.636 9.0047 102.078 8.18658 102.209C7.36847 102.339 6.81088 103.108 6.94117 103.926L9.90383 103.454ZM8.68633 113.965C8.83993 114.779 9.62438 115.315 10.4384 115.161C11.2525 115.007 11.7879 114.223 11.6343 113.409L8.68633 113.965ZM13.6549 123.306C13.4769 122.497 12.6767 121.986 11.8676 122.164C11.0585 122.342 10.5469 123.142 10.725 123.951L13.6549 123.306ZM13.0739 133.871C13.2779 134.674 14.0942 135.16 14.8971 134.956C15.7 134.752 16.1855 133.935 15.9815 133.133L13.0739 133.871ZM18.6361 142.87C18.4039 142.075 17.5711 141.618 16.7758 141.851C15.9806 142.083 15.5241 142.916 15.7563 143.711L18.6361 142.87ZM18.8027 153.449C19.0657 154.234 19.9158 154.658 20.7013 154.395C21.4869 154.132 21.9105 153.282 21.6475 152.496L18.8027 153.449ZM25.0522 161.98C24.7547 161.206 23.8868 160.821 23.1136 161.118C22.3405 161.416 21.9548 162.283 22.2522 163.057L25.0522 161.98ZM26.1541 172.496C26.4904 173.253 27.3767 173.594 28.1338 173.258C28.891 172.922 29.2321 172.036 28.8959 171.278L26.1541 172.496ZM33.2345 180.334C32.8539 179.598 31.9489 179.31 31.2131 179.691C30.4772 180.071 30.1892 180.976 30.5697 181.712L33.2345 180.334ZM35.5897 190.653C36.0214 191.36 36.9446 191.583 37.6516 191.151C38.3587 190.72 38.5819 189.796 38.1502 189.089L35.5897 190.653ZM43.7267 197.423C43.2358 196.756 42.2969 196.613 41.6295 197.104C40.9622 197.595 40.8191 198.534 41.31 199.201L43.7267 197.423ZM47.8276 207.175C48.3861 207.787 49.3349 207.83 49.9467 207.272C50.5585 206.713 50.6018 205.765 50.0433 205.153L47.8276 207.175ZM57.1784 212.046C56.5452 211.512 55.5989 211.592 55.0647 212.225C54.5304 212.858 54.6107 213.805 55.2438 214.339L57.1784 212.046ZM63.6611 220.398C64.3706 220.826 65.2925 220.598 65.7201 219.888C66.1478 219.179 65.9194 218.257 65.2099 217.829L63.6611 220.398ZM74.0658 222.135C73.2902 221.844 72.4254 222.237 72.1343 223.012C71.8431 223.788 72.2358 224.652 73.0114 224.944L74.0658 222.135ZM83.0805 227.638C83.8979 227.773 84.6698 227.22 84.8046 226.402C84.9394 225.585 84.386 224.813 83.5686 224.678L83.0805 227.638ZM93.3531 225.348C92.5249 225.367 91.8696 226.055 91.8894 226.883C91.9091 227.711 92.5966 228.367 93.4248 228.347L93.3531 225.348ZM103.81 227.337C104.63 227.22 105.2 226.46 105.082 225.64C104.965 224.82 104.205 224.25 103.385 224.368L103.81 227.337ZM113.239 222.619C112.429 222.792 111.912 223.589 112.085 224.399C112.258 225.209 113.055 225.726 113.865 225.553L113.239 222.619ZM123.771 223.059C124.567 222.826 125.023 221.993 124.79 221.198C124.558 220.403 123.725 219.947 122.93 220.179L123.771 223.059ZM132.386 217.008C131.612 217.302 131.223 218.169 131.518 218.943C131.812 219.717 132.679 220.106 133.453 219.812L132.386 217.008ZM142.868 215.782C143.616 215.425 143.933 214.53 143.576 213.782C143.219 213.035 142.324 212.718 141.576 213.075L142.868 215.782ZM150.429 208.403C149.712 208.818 149.468 209.736 149.883 210.453C150.299 211.169 151.216 211.414 151.933 210.998L150.429 208.403ZM160.575 205.547C161.26 205.08 161.436 204.147 160.969 203.463C160.502 202.778 159.569 202.602 158.885 203.069L160.575 205.547ZM166.978 197.154C166.324 197.663 166.207 198.605 166.715 199.259C167.224 199.913 168.167 200.03 168.821 199.521L166.978 197.154ZM176.704 193.058C177.332 192.518 177.404 191.571 176.864 190.943C176.325 190.314 175.378 190.242 174.749 190.782L176.704 193.058ZM182.277 184.093C181.665 184.652 181.622 185.601 182.181 186.212C182.74 186.824 183.689 186.867 184.3 186.308L182.277 184.093ZM191.735 179.409C192.34 178.843 192.371 177.893 191.805 177.289C191.239 176.684 190.289 176.653 189.685 177.219L191.735 179.409ZM197.095 170.311C196.486 170.873 196.447 171.822 197.009 172.431C197.57 173.04 198.519 173.078 199.128 172.517L197.095 170.311ZM206.623 165.777C207.247 165.232 207.312 164.285 206.768 163.66C206.224 163.036 205.276 162.971 204.652 163.515L206.623 165.777ZM212.484 156.991C211.834 157.505 211.724 158.448 212.238 159.098C212.751 159.748 213.695 159.858 214.345 159.344L212.484 156.991ZM222.391 153.384C223.073 152.914 223.245 151.98 222.775 151.297C222.305 150.615 221.371 150.443 220.689 150.913L222.391 153.384ZM229.344 145.439C228.626 145.852 228.38 146.769 228.793 147.487C229.207 148.205 230.124 148.452 230.842 148.038L229.344 145.439ZM239.701 143.445C240.453 143.097 240.78 142.206 240.433 141.454C240.085 140.702 239.194 140.374 238.442 140.721L239.701 143.445ZM247.926 136.863C247.145 137.139 246.736 137.996 247.012 138.777C247.288 139.558 248.145 139.968 248.926 139.691L247.926 136.863ZM258.487 136.795C259.29 136.591 259.775 135.775 259.571 134.972C259.366 134.169 258.55 133.684 257.747 133.888L258.487 136.795ZM267.804 131.783C266.987 131.919 266.435 132.691 266.571 133.509C266.707 134.326 267.479 134.878 268.296 134.742L267.804 131.783ZM278.211 133.481C279.036 133.407 279.645 132.678 279.571 131.853C279.497 131.028 278.768 130.419 277.943 130.493L278.211 133.481ZM288.135 129.924C287.307 129.943 286.651 130.63 286.671 131.459C286.69 132.287 287.377 132.942 288.205 132.923L288.135 129.924ZM298.248 132.983C299.076 133.011 299.77 132.362 299.798 131.534C299.827 130.706 299.178 130.012 298.35 129.984L298.248 132.983ZM308.55 130.592C307.725 130.523 306.999 131.136 306.93 131.961C306.861 132.787 307.474 133.512 308.299 133.581L308.55 130.592ZM318.242 134.637C319.064 134.741 319.815 134.16 319.919 133.338C320.024 132.516 319.443 131.765 318.621 131.661L318.242 134.637ZM328.641 133.13C327.823 132.995 327.051 133.548 326.916 134.366C326.781 135.183 327.334 135.955 328.151 136.09L328.641 133.13ZM337.852 138.557C338.631 138.839 339.491 138.437 339.774 137.658C340.056 136.88 339.654 136.019 338.875 135.737L337.852 138.557ZM348.401 139.676C347.65 139.326 346.758 139.649 346.407 140.4C346.056 141.15 346.38 142.043 347.13 142.394L348.401 139.676ZM356.002 147.064C356.716 147.484 357.635 147.246 358.056 146.532C358.476 145.818 358.238 144.899 357.525 144.479L356.002 147.064ZM366.167 150.156C365.498 149.667 364.559 149.814 364.071 150.483C363.583 151.152 363.729 152.091 364.399 152.579L366.167 150.156ZM372.207 158.889C372.825 159.44 373.773 159.387 374.324 158.768C374.876 158.15 374.822 157.202 374.204 156.651L372.207 158.889ZM381.569 163.888C381.006 163.28 380.057 163.243 379.449 163.806C378.841 164.369 378.804 165.318 379.367 165.926L381.569 163.888ZM385.851 173.606C386.357 174.263 387.299 174.385 387.955 173.879C388.611 173.373 388.733 172.431 388.228 171.775L385.851 173.606ZM394.169 180.195C393.719 179.499 392.791 179.3 392.095 179.749C391.399 180.199 391.2 181.127 391.649 181.823L394.169 180.195ZM396.787 190.486C397.183 191.214 398.094 191.483 398.822 191.087C399.55 190.691 399.818 189.78 399.422 189.052L396.787 190.486ZM404.03 198.256C403.684 197.504 402.793 197.174 402.041 197.521C401.288 197.867 400.959 198.758 401.305 199.51L404.03 198.256ZM405.249 208.818C405.55 209.59 406.419 209.972 407.191 209.671C407.963 209.37 408.345 208.501 408.044 207.729L405.249 208.818ZM411.512 217.383C411.252 216.596 410.403 216.169 409.617 216.429C408.83 216.689 408.403 217.537 408.663 218.324L411.512 217.383ZM411.61 228.001C411.833 228.799 412.661 229.264 413.459 229.041C414.257 228.817 414.722 227.99 414.499 227.192L411.61 228.001ZM417.057 237.117C416.867 236.311 416.058 235.812 415.252 236.003C414.446 236.194 413.947 237.002 414.138 237.808L417.057 237.117ZM416.293 247.715C416.455 248.527 417.245 249.055 418.058 248.893C418.87 248.731 419.397 247.941 419.235 247.129L416.293 247.715ZM421.076 257.202C420.94 256.385 420.167 255.833 419.35 255.97C418.533 256.106 417.981 256.879 418.117 257.696L421.076 257.202ZM419.648 267.733C419.762 268.553 420.519 269.126 421.34 269.012C422.16 268.898 422.733 268.141 422.619 267.32L419.648 267.733ZM423.9 277.47C423.806 276.647 423.062 276.056 422.239 276.15C421.416 276.244 420.825 276.987 420.919 277.81L423.9 277.47ZM421.962 287.918C422.038 288.742 422.769 289.349 423.594 289.273C424.419 289.196 425.025 288.466 424.949 287.641L421.962 287.918ZM425.795 297.822C425.734 296.996 425.015 296.376 424.188 296.437C423.362 296.498 422.742 297.217 422.803 298.044L425.795 297.822ZM423.47 308.187C423.517 309.014 424.226 309.646 425.054 309.598C425.881 309.55 426.512 308.841 426.465 308.014L423.47 308.187ZM426.981 318.212C426.944 317.384 426.244 316.743 425.416 316.779C424.589 316.815 423.947 317.516 423.984 318.343L426.981 318.212ZM424.367 328.509C424.393 329.337 425.086 329.987 425.914 329.961C426.742 329.934 427.392 329.242 427.365 328.414L424.367 328.509ZM427.638 338.616C427.62 337.788 426.934 337.132 426.106 337.15C425.278 337.168 424.621 337.854 424.639 338.682L427.638 338.616ZM424.82 348.861C424.831 349.689 425.512 350.351 426.341 350.34C427.169 350.328 427.831 349.647 427.82 348.819L424.82 348.861ZM427.928 359.02C427.921 358.192 427.245 357.525 426.416 357.532C425.588 357.538 424.922 358.215 424.928 359.043L427.928 359.02ZM424.981 369.229C424.984 370.057 425.658 370.727 426.486 370.724C427.314 370.722 427.984 370.048 427.981 369.219L424.981 369.229ZM427.999 379.416C427.998 378.588 427.326 377.916 426.498 377.917C425.669 377.917 424.998 378.589 424.999 379.418L427.999 379.416ZM7.07503 7.53204C6.57443 9.05659 6.11434 10.7272 5.69466 12.5295L8.61649 13.2098C9.01962 11.4787 9.45677 9.89487 9.92531 8.46796L7.07503 7.53204ZM3.92454 22.6369C3.51657 25.8004 3.18989 29.2027 2.94751 32.8085L5.94075 33.0097C6.17957 29.457 6.50071 26.1161 6.8999 23.0206L3.92454 22.6369ZM2.50016 43.0129C2.42648 46.3087 2.41356 49.7266 2.46342 53.2466L5.46312 53.2041C5.41375 49.7188 5.42659 46.3374 5.49941 43.08L2.50016 43.0129ZM2.77209 63.4258C2.92472 66.7486 3.12972 70.1393 3.38862 73.5833L6.38018 73.3584C6.12343 69.9431 5.92021 66.5815 5.76893 63.2881L2.77209 63.4258ZM4.29393 83.7263C4.63885 87.0675 5.03331 90.444 5.47866 93.8434L8.45324 93.4538C8.01149 90.0817 7.6202 86.7325 7.27807 83.4182L4.29393 83.7263ZM6.94117 103.926C7.47305 107.266 8.05436 110.616 8.68633 113.965L11.6343 113.409C11.0078 110.088 10.4313 106.766 9.90383 103.454L6.94117 103.926ZM10.725 123.951C11.456 127.273 12.2385 130.584 13.0739 133.871L15.9815 133.133C15.1544 129.878 14.3792 126.598 13.6549 123.306L10.725 123.951ZM15.7563 143.711C16.7153 146.996 17.7303 150.246 18.8027 153.449L21.6475 152.496C20.5881 149.332 19.5847 146.12 18.6361 142.87L15.7563 143.711ZM22.2522 163.057C23.4887 166.271 24.7888 169.422 26.1541 172.496L28.8959 171.278C27.5525 168.253 26.2716 165.15 25.0522 161.98L22.2522 163.057ZM30.5697 181.712C32.1663 184.799 33.839 187.785 35.5897 190.653L38.1502 189.089C36.4391 186.287 34.8009 183.363 33.2345 180.334L30.5697 181.712ZM41.31 199.201C43.3862 202.023 45.5578 204.689 47.8276 207.175L50.0433 205.153C47.8506 202.751 45.7456 200.168 43.7267 197.423L41.31 199.201ZM55.2438 214.339C57.9288 216.604 60.7335 218.634 63.6611 220.398L65.2099 217.829C62.4277 216.152 59.7513 214.217 57.1784 212.046L55.2438 214.339ZM73.0114 224.944C76.2416 226.156 79.5974 227.064 83.0805 227.638L83.5686 224.678C80.2822 224.136 77.1159 223.28 74.0658 222.135L73.0114 224.944ZM93.4248 228.347C95.1455 228.306 96.8923 228.188 98.6655 227.991L98.3342 225.009C96.6455 225.197 94.9853 225.309 93.3531 225.348L93.4248 228.347ZM98.6655 227.991C100.411 227.797 102.126 227.579 103.81 227.337L103.385 224.368C101.732 224.604 100.049 224.819 98.3342 225.009L98.6655 227.991ZM113.865 225.553C117.298 224.821 120.596 223.987 123.771 223.059L122.93 220.179C119.827 221.086 116.601 221.903 113.239 222.619L113.865 225.553ZM133.453 219.812C136.725 218.567 139.857 217.219 142.868 215.782L141.576 213.075C138.638 214.477 135.58 215.793 132.386 217.008L133.453 219.812ZM151.933 210.998C154.93 209.261 157.803 207.438 160.575 205.547L158.885 203.069C156.169 204.922 153.357 206.705 150.429 208.403L151.933 210.998ZM168.821 199.521C171.527 197.415 174.147 195.253 176.704 193.058L174.749 190.782C172.222 192.951 169.64 195.082 166.978 197.154L168.821 199.521ZM184.3 186.308C186.808 184.016 189.279 181.708 191.735 179.409L189.685 177.219C187.229 179.518 184.77 181.815 182.277 184.093L184.3 186.308ZM199.128 172.517C201.604 170.234 204.093 167.981 206.623 165.777L204.652 163.515C202.094 165.744 199.584 168.017 197.095 170.311L199.128 172.517ZM214.345 159.344C216.953 157.282 219.626 155.288 222.391 153.384L220.689 150.913C217.863 152.86 215.137 154.893 212.484 156.991L214.345 159.344ZM230.842 148.038C233.68 146.403 236.625 144.866 239.701 143.445L238.442 140.721C235.281 142.182 232.255 143.761 229.344 145.439L230.842 148.038ZM248.926 139.691C251.979 138.612 255.16 137.642 258.487 136.795L257.747 133.888C254.332 134.757 251.064 135.753 247.926 136.863L248.926 139.691ZM268.296 134.742C271.472 134.214 274.773 133.79 278.211 133.481L277.943 130.493C274.431 130.809 271.055 131.242 267.804 131.783L268.296 134.742ZM288.205 132.923C291.437 132.847 294.782 132.865 298.248 132.983L298.35 129.984C294.829 129.864 291.426 129.846 288.135 129.924L288.205 132.923ZM308.299 133.581C311.515 133.852 314.827 134.202 318.242 134.637L318.621 131.661C315.165 131.221 311.81 130.866 308.55 130.592L308.299 133.581ZM328.151 136.09C329.821 136.366 331.514 136.661 333.23 136.975L333.77 134.025C332.038 133.707 330.328 133.409 328.641 133.13L328.151 136.09ZM333.049 136.931C334.679 137.444 336.28 137.987 337.852 138.557L338.875 135.737C337.262 135.152 335.621 134.596 333.951 134.069L333.049 136.931ZM347.13 142.394C350.209 143.834 353.164 145.392 356.002 147.064L357.525 144.479C354.605 142.759 351.565 141.156 348.401 139.676L347.13 142.394ZM364.399 152.579C367.122 154.567 369.723 156.672 372.207 158.889L374.204 156.651C371.648 154.369 368.971 152.202 366.167 150.156L364.399 152.579ZM379.367 165.926C381.639 168.381 383.799 170.943 385.851 173.606L388.228 171.775C386.122 169.043 383.904 166.412 381.569 163.888L379.367 165.926ZM391.649 181.823C393.458 184.622 395.169 187.512 396.787 190.486L399.422 189.052C397.769 186.015 396.02 183.06 394.169 180.195L391.649 181.823ZM401.305 199.51C402.7 202.542 404.013 205.646 405.249 208.818L408.044 207.729C406.788 204.504 405.451 201.345 404.03 198.256L401.305 199.51ZM408.663 218.324C409.711 221.494 410.692 224.722 411.61 228.001L414.499 227.192C413.569 223.871 412.575 220.599 411.512 217.383L408.663 218.324ZM414.138 237.808C414.91 241.069 415.627 244.373 416.293 247.715L419.235 247.129C418.562 243.753 417.838 240.414 417.057 237.117L414.138 237.808ZM418.117 257.696C418.671 261.011 419.18 264.358 419.648 267.733L422.619 267.32C422.148 263.92 421.634 260.546 421.076 257.202L418.117 257.696ZM420.919 277.81C421.301 281.158 421.648 284.529 421.962 287.918L424.949 287.641C424.633 284.232 424.284 280.841 423.9 277.47L420.919 277.81ZM422.803 298.044C423.052 301.412 423.274 304.795 423.47 308.187L426.465 308.014C426.268 304.607 426.046 301.208 425.795 297.822L422.803 298.044ZM423.984 318.343C424.132 321.727 424.258 325.117 424.367 328.509L427.365 328.414C427.257 325.011 427.129 321.609 426.981 318.212L423.984 318.343ZM424.639 338.682C424.714 342.078 424.773 345.472 424.82 348.861L427.82 348.819C427.773 345.423 427.713 342.021 427.638 338.616L424.639 338.682ZM424.928 359.043C424.954 362.449 424.971 365.846 424.981 369.229L427.981 369.219C427.97 365.833 427.954 362.432 427.928 359.02L424.928 359.043ZM424.999 379.418C425 381.116 425 382.811 425 384.5H428C428 382.81 428 381.116 427.999 379.416L424.999 379.418Z" fill="#F0CD6E"/>
</svg>
