<svg id="visual" viewBox="0 0 1920 1080" width="1920" height="1080" xmlns="http://www.w3.org/2000/svg" xmlns:xlink="http://www.w3.org/1999/xlink" version="1.1"><path d="M0 465L29.2 439.8C58.3 414.7 116.7 364.3 174.8 378.8C233 393.3 291 472.7 349.2 474.5C407.3 476.3 465.7 400.7 523.8 359.2C582 317.7 640 310.3 698.2 310.3C756.3 310.3 814.7 317.7 872.8 337.5C931 357.3 989 389.7 1047.2 416.7C1105.3 443.7 1163.7 465.3 1221.8 470.8C1280 476.3 1338 465.7 1396.2 435C1454.3 404.3 1512.7 353.7 1570.8 333.8C1629 314 1687 325 1745.2 335.8C1803.3 346.7 1861.7 357.3 1890.8 362.7L1920 368L1920 0L1890.8 0C1861.7 0 1803.3 0 1745.2 0C1687 0 1629 0 1570.8 0C1512.7 0 1454.3 0 1396.2 0C1338 0 1280 0 1221.8 0C1163.7 0 1105.3 0 1047.2 0C989 0 931 0 872.8 0C814.7 0 756.3 0 698.2 0C640 0 582 0 523.8 0C465.7 0 407.3 0 349.2 0C291 0 233 0 174.8 0C116.7 0 58.3 0 29.2 0L0 0Z" fill="#4fb191"></path><path d="M0 671L29.2 644C58.3 617 116.7 563 174.8 575.5C233 588 291 667 349.2 674.2C407.3 681.3 465.7 616.7 523.8 586.2C582 555.7 640 559.3 698.2 573.7C756.3 588 814.7 613 872.8 625.5C931 638 989 638 1047.2 648.8C1105.3 659.7 1163.7 681.3 1221.8 688.5C1280 695.7 1338 688.3 1396.2 659.5C1454.3 630.7 1512.7 580.3 1570.8 560.7C1629 541 1687 552 1745.2 579C1803.3 606 1861.7 649 1890.8 670.5L1920 692L1920 366L1890.8 360.7C1861.7 355.3 1803.3 344.7 1745.2 333.8C1687 323 1629 312 1570.8 331.8C1512.7 351.7 1454.3 402.3 1396.2 433C1338 463.7 1280 474.3 1221.8 468.8C1163.7 463.3 1105.3 441.7 1047.2 414.7C989 387.7 931 355.3 872.8 335.5C814.7 315.7 756.3 308.3 698.2 308.3C640 308.3 582 315.7 523.8 357.2C465.7 398.7 407.3 474.3 349.2 472.5C291 470.7 233 391.3 174.8 376.8C116.7 362.3 58.3 412.7 29.2 437.8L0 463Z" fill="#1a936f"></path><path d="M0 1081L29.2 1081C58.3 1081 116.7 1081 174.8 1081C233 1081 291 1081 349.2 1081C407.3 1081 465.7 1081 523.8 1081C582 1081 640 1081 698.2 1081C756.3 1081 814.7 1081 872.8 1081C931 1081 989 1081 1047.2 1081C1105.3 1081 1163.7 1081 1221.8 1081C1280 1081 1338 1081 1396.2 1081C1454.3 1081 1512.7 1081 1570.8 1081C1629 1081 1687 1081 1745.2 1081C1803.3 1081 1861.7 1081 1890.8 1081L1920 1081L1920 690L1890.8 668.5C1861.7 647 1803.3 604 1745.2 577C1687 550 1629 539 1570.8 558.7C1512.7 578.3 1454.3 628.7 1396.2 657.5C1338 686.3 1280 693.7 1221.8 686.5C1163.7 679.3 1105.3 657.7 1047.2 646.8C989 636 931 636 872.8 623.5C814.7 611 756.3 586 698.2 571.7C640 557.3 582 553.7 523.8 584.2C465.7 614.7 407.3 679.3 349.2 672.2C291 665 233 586 174.8 573.5C116.7 561 58.3 615 29.2 642L0 669Z" fill="#126c52"></path></svg>