<svg width="1440" height="442" viewBox="0 0 1440 442" fill="none" xmlns="http://www.w3.org/2000/svg">
<path d="M-11 95.1145L6.33139 97.861C23.562 100.542 58.2248 106.035 92.7868 97.4033C127.349 88.7714 162.012 66.1454 196.574 52.7398C231.136 39.3343 265.798 35.1491 300.159 34.1028C334.62 32.9912 368.88 34.953 403.341 27.2366C437.702 19.4548 472.364 2.06026 506.926 0.163868C541.488 -1.66714 576.151 12.0654 610.713 30.3754C645.275 48.6855 679.938 71.573 714.5 69.4804C749.062 67.4533 783.725 40.3806 818.287 23.1822C852.849 5.98385 887.512 -1.47094 922.074 17.1007C956.636 35.6069 991.298 80.0741 1025.66 100.869C1060.12 121.729 1094.38 118.852 1128.84 111.594C1163.2 104.27 1197.86 92.4988 1232.43 96.0954C1266.99 99.692 1301.65 118.656 1336.21 120.16C1370.78 121.729 1405.44 105.774 1422.67 97.861L1440 89.8831V218.053H1422.67C1405.44 218.053 1370.78 218.053 1336.21 218.053C1301.65 218.053 1266.99 218.053 1232.43 218.053C1197.86 218.053 1163.2 218.053 1128.84 218.053C1094.38 218.053 1060.12 218.053 1025.66 218.053C991.298 218.053 956.636 218.053 922.074 218.053C887.512 218.053 852.849 218.053 818.287 218.053C783.725 218.053 749.062 218.053 714.5 218.053C679.938 218.053 645.275 218.053 610.713 218.053C576.151 218.053 541.488 218.053 506.926 218.053C472.364 218.053 437.702 218.053 403.341 218.053C368.88 218.053 334.62 218.053 300.159 218.053C265.798 218.053 231.136 218.053 196.574 218.053C162.012 218.053 127.349 218.053 92.7868 218.053C58.2248 218.053 23.562 218.053 6.33139 218.053H-11V95.1145Z" fill="#114B5F"/>
<path d="M-7.98334 213.47H1440V442H-7.98334V213.47Z" fill="#114B5F"/>
</svg>
