<svg width="36" height="33" viewBox="0 0 36 33" fill="none" xmlns="http://www.w3.org/2000/svg">
<path d="M17.8496 0.436615C15.5828 0.436615 13.3381 0.85628 11.2438 1.67165C9.14955 2.48702 7.24663 3.68212 5.64373 5.18872C2.40653 8.23145 0.587891 12.3583 0.587891 16.6613C0.587891 20.9644 2.40653 25.0912 5.64373 28.1339C7.24663 29.6405 9.14955 30.8357 11.2438 31.651C13.3381 32.4664 15.5828 32.8861 17.8496 32.8861C22.4277 32.8861 26.8183 31.1767 30.0555 28.1339C33.2927 25.0912 35.1113 20.9644 35.1113 16.6613C35.1113 14.7793 34.7488 12.9134 34.0584 11.1612L31.2965 13.7571C31.5382 14.7144 31.659 15.6878 31.659 16.6613C31.659 20.1038 30.2041 23.4052 27.6143 25.8394C25.0246 28.2736 21.5121 29.6411 17.8496 29.6411C14.1871 29.6411 10.6747 28.2736 8.08491 25.8394C5.49515 23.4052 4.04023 20.1038 4.04023 16.6613C4.04023 13.2189 5.49515 9.91743 8.08491 7.48325C10.6747 5.04907 14.1871 3.68156 17.8496 3.68156C18.8853 3.68156 19.921 3.79513 20.9395 4.02228L23.7186 1.4101C21.8371 0.777334 19.852 0.436615 17.8496 0.436615ZM29.9328 0.436615L23.0281 6.9265V9.36021L18.6264 13.4975C18.3675 13.4164 18.1085 13.4164 17.8496 13.4164C16.934 13.4164 16.0559 13.7583 15.4084 14.3668C14.761 14.9754 14.3973 15.8007 14.3973 16.6613C14.3973 17.5219 14.761 18.3473 15.4084 18.9559C16.0559 19.5644 16.934 19.9063 17.8496 19.9063C18.7652 19.9063 19.6433 19.5644 20.2908 18.9559C20.9382 18.3473 21.302 17.5219 21.302 16.6613C21.302 16.418 21.302 16.1746 21.2156 15.9312L25.6174 11.7939H28.2066L35.1113 5.30403H29.9328V0.436615ZM17.8496 6.9265C15.1028 6.9265 12.4684 7.95213 10.5261 9.77777C8.58376 11.6034 7.49258 14.0795 7.49258 16.6613C7.49258 19.2432 8.58376 21.7193 10.5261 23.5449C12.4684 25.3705 15.1028 26.3962 17.8496 26.3962C20.5965 26.3962 23.2308 25.3705 25.1731 23.5449C27.1155 21.7193 28.2066 19.2432 28.2066 16.6613H24.7543C24.7543 18.3826 24.0268 20.0333 22.732 21.2504C21.4371 22.4675 19.6808 23.1512 17.8496 23.1512C16.0184 23.1512 14.2621 22.4675 12.9673 21.2504C11.6724 20.0333 10.9449 18.3826 10.9449 16.6613C10.9449 14.9401 11.6724 13.2894 12.9673 12.0723C14.2621 10.8552 16.0184 10.1714 17.8496 10.1714V6.9265Z" fill="#FDFCF8"/>
</svg>
