<svg width="36" height="33" viewBox="0 0 36 33" fill="none" xmlns="http://www.w3.org/2000/svg">
<path d="M18.0165 15.815C19.3443 15.815 20.6424 15.4449 21.7464 14.7517C22.8505 14.0585 23.711 13.0731 24.2192 11.9203C24.7273 10.7674 24.8603 9.49891 24.6012 8.27507C24.3422 7.05123 23.7027 5.92706 22.7638 5.04472C21.8249 4.16238 20.6286 3.5615 19.3263 3.31807C18.0239 3.07463 16.674 3.19957 15.4472 3.67709C14.2205 4.15461 13.1719 4.96326 12.4342 6.00078C11.6965 7.0383 11.3027 8.25809 11.3027 9.5059C11.3027 11.1792 12.0101 12.7839 13.2691 13.9671C14.5282 15.1503 16.2359 15.815 18.0165 15.815ZM18.0165 4.99943C18.9649 4.99943 19.8921 5.26373 20.6807 5.75891C21.4694 6.25409 22.084 6.9579 22.447 7.78135C22.8099 8.6048 22.9049 9.5109 22.7199 10.3851C22.5348 11.2592 22.0781 12.0622 21.4074 12.6925C20.7368 13.3227 19.8823 13.7519 18.952 13.9258C18.0218 14.0997 17.0576 14.0104 16.1813 13.6693C15.305 13.3283 14.5561 12.7507 14.0291 12.0096C13.5022 11.2685 13.2209 10.3972 13.2209 9.5059C13.2209 8.31071 13.7262 7.16447 14.6255 6.31935C15.5249 5.47422 16.7446 4.99943 18.0165 4.99943V4.99943Z" fill="#FDFCF8"/>
<path d="M29.9773 22.4575C28.4392 20.9298 26.5857 19.713 24.5301 18.8814C22.4745 18.0497 20.26 17.6208 18.022 17.6208C15.784 17.6208 13.5696 18.0497 11.514 18.8814C9.45838 19.713 7.60487 20.9298 6.06675 22.4575C5.73328 22.7922 5.54807 23.2338 5.54883 23.6923V28.4331C5.54883 28.9112 5.75093 29.3697 6.11066 29.7077C6.4704 30.0458 6.95831 30.2357 7.46705 30.2357H28.5675C29.0762 30.2357 29.5641 30.0458 29.9238 29.7077C30.2836 29.3697 30.4857 28.9112 30.4857 28.4331V23.6923C30.489 23.235 30.3073 22.7936 29.9773 22.4575V22.4575ZM28.5675 28.4331H7.46705V23.6833C8.82633 22.3383 10.4626 21.2672 12.2764 20.5353C14.0901 19.8034 16.0434 19.426 18.0173 19.426C19.9911 19.426 21.9444 19.8034 23.7581 20.5353C25.5719 21.2672 27.2082 22.3383 28.5675 23.6833V28.4331Z" fill="#FDFCF8"/>
</svg>
